<svg width="86" height="29" viewBox="0 0 86 29" fill="none" xmlns="http://www.w3.org/2000/svg">
<path d="M7.97728 28.2187L0 7.94H5.33061L11.1085 23.8945H9.13286L14.9481 7.94H20.2787L12.3014 28.2187H7.97728Z" fill="black"/>
<path d="M31.4111 28.666C29.423 28.666 27.6088 28.2063 25.9687 27.2868C24.3533 26.3673 23.0611 25.1123 22.0919 23.5218C21.1475 21.9313 20.6753 20.1171 20.6753 18.0793C20.6753 16.0415 21.1475 14.2274 22.0919 12.6369C23.0611 11.0464 24.3533 9.79142 25.9687 8.87192C27.584 7.95242 29.3981 7.49267 31.4111 7.49267C33.3992 7.49267 35.2009 7.95242 36.8163 8.87192C38.4316 9.79142 39.7114 11.0464 40.6558 12.6369C41.625 14.2025 42.1096 16.0167 42.1096 18.0793C42.1096 20.1171 41.625 21.9313 40.6558 23.5218C39.6866 25.1123 38.3943 26.3673 36.779 27.2868C35.1637 28.2063 33.3744 28.666 31.4111 28.666ZM31.4111 24.1928C32.5046 24.1928 33.4613 23.9318 34.2814 23.4099C35.1264 22.8881 35.7849 22.1674 36.2571 21.2479C36.7541 20.3035 37.0026 19.2473 37.0026 18.0793C37.0026 16.8865 36.7541 15.8427 36.2571 14.9481C35.7849 14.0286 35.1264 13.3079 34.2814 12.786C33.4613 12.2393 32.5046 11.9659 31.4111 11.9659C30.2928 11.9659 29.3112 12.2393 28.4662 12.786C27.6213 13.3079 26.9503 14.0286 26.4533 14.9481C25.9811 15.8427 25.745 16.8865 25.745 18.0793C25.745 19.2473 25.9811 20.3035 26.4533 21.2479C26.9503 22.1674 27.6213 22.8881 28.4662 23.4099C29.3112 23.9318 30.2928 24.1928 31.4111 24.1928Z" fill="black"/>
<path d="M44.6945 28.2187V0H49.5778V28.2187H44.6945Z" fill="black"/>
<path d="M62.213 28.4423C59.9266 28.4423 58.1498 27.8211 56.8823 26.5785C55.6398 25.3111 55.0185 23.5342 55.0185 21.2479V12.3014H51.5145V7.94H51.8872C52.8813 7.94 53.6517 7.67906 54.1984 7.15718C54.7451 6.6353 55.0185 5.87734 55.0185 4.88328V3.31765H59.9018V7.94H64.5614V12.3014H59.9018V20.9869C59.9018 21.6579 60.0136 22.2295 60.2373 22.7017C60.4858 23.1739 60.8586 23.5342 61.3556 23.7827C61.8775 24.0312 62.536 24.1555 63.3313 24.1555C63.5052 24.1555 63.704 24.1431 63.9277 24.1182C64.1762 24.0934 64.4123 24.0685 64.636 24.0437V28.2187C64.288 28.2684 63.8904 28.3181 63.4431 28.3678C62.9958 28.4175 62.5857 28.4423 62.213 28.4423Z" fill="black"/>
<path d="M66.7554 15.5278L75.6274 0.553967C76.1237 -0.283153 77.4119 0.11135 77.352 1.08125L76.8035 9.90854C76.7707 10.4397 77.1936 10.89 77.7286 10.89H84.9861C85.7026 10.89 86.1487 11.6636 85.7876 12.2794L76.7398 27.7575C76.2531 28.5888 74.9747 28.2193 75.0114 27.2571L75.357 18.0315C75.3764 17.5157 74.9689 17.0847 74.4494 17.0731L67.5318 16.9211C66.823 16.9057 66.3923 16.1359 66.7535 15.5259L66.7554 15.5278Z" fill="black"/>
</svg>
